<svg width="33" height="37" viewBox="0 0 33 37" fill="none" xmlns="http://www.w3.org/2000/svg">
<path d="M16.5 0C12.1239 0 7.92709 1.75419 4.83274 4.87667C1.73839 7.99915 0 12.2341 0 16.65C0 24.3645 5.20667 30.8395 12.265 32.7265L16.5 37L20.735 32.7265C27.7933 30.8395 33 24.3645 33 16.65C33 12.2341 31.2616 7.99915 28.1673 4.87667C25.0729 1.75419 20.8761 0 16.5 0ZM16.5 3.7C19.5433 3.7 22 6.179 22 9.25C22 12.321 19.5433 14.8 16.5 14.8C13.4567 14.8 11 12.321 11 9.25C11 6.179 13.4567 3.7 16.5 3.7ZM16.5 30.155C14.3217 30.155 12.1773 29.6111 10.258 28.5717C8.33868 27.5323 6.70409 26.0297 5.5 24.198C5.555 20.5165 12.8333 18.5 16.5 18.5C20.1483 18.5 27.445 20.5165 27.5 24.198C26.2959 26.0297 24.6613 27.5323 22.742 28.5717C20.8227 29.6111 18.6783 30.155 16.5 30.155Z" fill="black"/>
</svg>
