<svg width="3000" height="6582" viewBox="0 0 3000 6582" fill="none" xmlns="http://www.w3.org/2000/svg">
<path fill-rule="evenodd" clip-rule="evenodd" d="M750 1097H0V2194H750V1097H1500V0H750V1097ZM781 31V1066H1469V31H781ZM719 1128H31V2163H719V1128Z" fill="black"/>
<path fill-rule="evenodd" clip-rule="evenodd" d="M2250 1097H1500V2194H2250V1097H3000V0H2250V1097ZM2281 31V1066H2969V31H2281ZM2219 1128H1531V2163H2219V1128Z" fill="black"/>
<path fill-rule="evenodd" clip-rule="evenodd" d="M750 3291H0V4388H750V3291H1500V2194H750V3291ZM781 2225V3260H1469V2225H781ZM719 3322H31V4357H719V3322Z" fill="black"/>
<path fill-rule="evenodd" clip-rule="evenodd" d="M2250 3291H1500V4388H2250V3291H3000V2194H2250V3291ZM2281 2225V3260H2969V2225H2281ZM2219 3322H1531V4357H2219V3322Z" fill="black"/>
<path fill-rule="evenodd" clip-rule="evenodd" d="M750 5485H0V6582H750V5485H1500V4388H750V5485ZM781 4419V5454H1469V4419H781ZM719 5516H31V6551H719V5516Z" fill="black"/>
<path fill-rule="evenodd" clip-rule="evenodd" d="M2250 5485H1500V6582H2250V5485H3000V4388H2250V5485ZM2281 4419V5454H2969V4419H2281ZM2219 5516H1531V6551H2219V5516Z" fill="black"/>
</svg>
