<svg width="40" height="36" viewBox="0 0 40 36" fill="none" xmlns="http://www.w3.org/2000/svg">
<path d="M24 16L28 20L24 24M16 24L12 20L16 16M2 6V27.6C2 29.84 2 30.96 2.436 31.816C2.81949 32.5686 3.43139 33.1805 4.184 33.564C5.038 34 6.158 34 8.394 34H31.606C33.842 34 34.96 34 35.814 33.564C36.568 33.18 37.18 32.568 37.564 31.816C38 30.96 38 29.84 38 27.6V12.4C38 10.16 38 9.04 37.564 8.184C37.1805 7.43139 36.5686 6.81949 35.816 6.436C34.96 6 33.84 6 31.6 6H20M2 6H20M2 6C2 4.93913 2.42143 3.92172 3.17157 3.17157C3.92172 2.42143 4.93913 2 6 2H13.35C14.328 2 14.818 2 15.278 2.11C15.686 2.21 16.076 2.37 16.434 2.59C16.838 2.838 17.184 3.184 17.874 3.876L20 6" stroke="black" stroke-width="2" stroke-linecap="round" stroke-linejoin="round"/>
</svg>
