<svg width="36" height="36" viewBox="0 0 36 36" fill="none" xmlns="http://www.w3.org/2000/svg">
<g clip-path="url(#clip0_256_57)">
<path d="M26.54 18.0001C26.5358 16.6555 26.3917 15.3149 26.11 14.0001H29.71C29.5246 13.4517 29.3007 12.917 29.04 12.4001H25.69C25.0602 10.2962 24.0835 8.31219 22.8 6.5301C21.98 6.1853 21.125 5.93048 20.25 5.7701C22.0083 7.65934 23.3356 9.90778 24.14 12.3601H18.75V5.6001H17.25V12.3701H11.86C12.6661 9.91334 13.9968 7.66129 15.76 5.7701C14.8888 5.9278 14.0371 6.17926 13.22 6.5201C11.9314 8.29472 10.948 10.2719 10.31 12.3701H6.93999C6.67456 12.8964 6.44731 13.4412 6.25999 14.0001H9.88999C9.60828 15.3149 9.46417 16.6555 9.45999 18.0001C9.46276 19.4709 9.63047 20.9367 9.95999 22.3701H6.41999C6.62687 22.9306 6.87419 23.4754 7.15999 24.0001H10.39C11.0022 25.9159 11.9098 27.7243 13.08 29.3601C13.918 29.7195 14.7934 29.9845 15.69 30.1501C14.0579 28.3699 12.8028 26.2779 12 24.0001H17.26V30.3401H18.76V24.0001H24C23.1945 26.2789 21.9359 28.3709 20.3 30.1501C21.2008 29.9788 22.0796 29.7071 22.92 29.3401C24.0883 27.7105 24.9959 25.9089 25.61 24.0001H28.81C29.0945 23.4851 29.3418 22.9504 29.55 22.4001H26C26.3452 20.9585 26.5264 19.4824 26.54 18.0001ZM17.25 22.3701H11.51C10.806 19.6179 10.7751 16.7367 11.42 13.9701H17.25V22.3701ZM24.49 22.3701H18.75V14.0001H24.58C24.8673 15.3138 25.0081 16.6553 25 18.0001C25.0081 19.4721 24.8369 20.9396 24.49 22.3701Z" fill="#0E0C0C"/>
<path d="M18 2C14.8355 2 11.7421 2.93838 9.11088 4.69649C6.4797 6.45459 4.42894 8.95345 3.21793 11.8771C2.00693 14.8007 1.69008 18.0177 2.30744 21.1214C2.92481 24.2251 4.44866 27.0761 6.6863 29.3137C8.92394 31.5513 11.7749 33.0752 14.8786 33.6926C17.9823 34.3099 21.1993 33.9931 24.1229 32.7821C27.0466 31.5711 29.5454 29.5203 31.3035 26.8891C33.0616 24.2579 34 21.1645 34 18C34 13.7565 32.3143 9.68687 29.3137 6.68629C26.3131 3.68571 22.2435 2 18 2ZM18 32C15.2311 32 12.5243 31.1789 10.222 29.6406C7.91974 28.1022 6.12532 25.9157 5.06569 23.3576C4.00607 20.7994 3.72882 17.9845 4.26901 15.2687C4.80921 12.553 6.14258 10.0584 8.10051 8.1005C10.0584 6.14257 12.553 4.8092 15.2687 4.26901C17.9845 3.72881 20.7994 4.00606 23.3576 5.06569C25.9157 6.12531 28.1022 7.91973 29.6406 10.222C31.1789 12.5243 32 15.2311 32 18C32 21.713 30.525 25.274 27.8995 27.8995C25.274 30.525 21.713 32 18 32Z" fill="#0E0C0C"/>
</g>
<defs>
<clipPath id="clip0_256_57">
<rect width="36" height="36" fill="white"/>
</clipPath>
</defs>
</svg>
