<svg width="46" height="42" viewBox="0 0 46 42" fill="none" xmlns="http://www.w3.org/2000/svg">
<path d="M8.65204 21.7393V10.145H4.32602C3.17869 10.145 2.07835 10.6031 1.26706 11.4185C0.455776 12.2339 0 13.3398 0 14.4929V40.5801C0.00214614 40.8493 0.0788302 41.1125 0.221458 41.3403C0.364086 41.5682 0.567022 41.7516 0.807523 41.87C1.03922 41.9759 1.29469 42.0183 1.54796 41.9928C1.80123 41.9674 2.04328 41.875 2.24953 41.7251L9.67586 36.2322H29.0564C29.603 36.2485 30.147 36.1518 30.6548 35.9481C31.1627 35.7444 31.6235 35.4382 32.0087 35.0482C32.394 34.6583 32.6955 34.193 32.8946 33.6812C33.0937 33.1694 33.1861 32.622 33.1661 32.0728V30.4351H17.3041C15.0094 30.4351 12.8087 29.5189 11.1862 27.8882C9.56359 26.2574 8.65204 24.0456 8.65204 21.7393Z" fill="black"/>
<path d="M41.8182 0H17.3041C16.1567 0 15.0564 0.458078 14.2451 1.27346C13.4338 2.08885 12.9781 3.19474 12.9781 4.34787V21.7393C12.9781 22.8925 13.4338 23.9984 14.2451 24.8138C15.0564 25.6291 16.1567 26.0872 17.3041 26.0872H36.8433L43.7361 31.4641C43.941 31.6163 44.1823 31.7113 44.4357 31.7393C44.689 31.7673 44.9451 31.7274 45.1781 31.6235C45.4234 31.506 45.6308 31.3213 45.7762 31.0905C45.9217 30.8597 45.9992 30.5923 46 30.3191V4.34787C46.0006 3.21942 45.5647 2.13493 44.7843 1.32359C44.004 0.512246 42.9403 0.0376148 41.8182 0Z" fill="black"/>
</svg>
