<svg width="51" height="57" viewBox="0 0 51 57" fill="none" xmlns="http://www.w3.org/2000/svg">
<path d="M45.3333 0C46.8362 0 48.2776 0.600534 49.3403 1.66949C50.403 2.73845 51 4.18827 51 5.7V39.9C51 41.4117 50.403 42.8615 49.3403 43.9305C48.2776 44.9995 46.8362 45.6 45.3333 45.6H39.6667V51.3C39.6667 52.8117 39.0696 54.2615 38.0069 55.3305C36.9442 56.3995 35.5029 57 34 57H5.66667C4.16377 57 2.72243 56.3995 1.65973 55.3305C0.597022 54.2615 0 52.8117 0 51.3V17.1C0 15.5883 0.597022 14.1384 1.65973 13.0695C2.72243 12.0005 4.16377 11.4 5.66667 11.4H11.3333V5.7C11.3333 4.18827 11.9304 2.73845 12.9931 1.66949C14.0558 0.600534 15.4971 0 17 0H45.3333ZM19.8333 37.05H14.1667C13.4445 37.0508 12.7499 37.329 12.2248 37.8276C11.6997 38.3263 11.3837 39.0078 11.3413 39.733C11.299 40.4581 11.5336 41.1722 11.9971 41.7292C12.4606 42.2863 13.1181 42.6443 13.8352 42.73L14.1667 42.75H19.8333C20.5555 42.7492 21.2501 42.471 21.7752 41.9724C22.3003 41.4737 22.6163 40.7922 22.6587 40.067C22.701 39.3419 22.4664 38.6278 22.0029 38.0708C21.5394 37.5137 20.8819 37.1557 20.1648 37.0699L19.8333 37.05ZM45.3333 5.7H17V11.4H34C35.5029 11.4 36.9442 12.0005 38.0069 13.0695C39.0696 14.1384 39.6667 15.5883 39.6667 17.1V39.9H45.3333V5.7ZM25.5 25.65H14.1667C13.4152 25.65 12.6946 25.9503 12.1632 26.4847C11.6318 27.0192 11.3333 27.7441 11.3333 28.5C11.3333 29.2559 11.6318 29.9808 12.1632 30.5153C12.6946 31.0497 13.4152 31.35 14.1667 31.35H25.5C26.2514 31.35 26.9721 31.0497 27.5035 30.5153C28.0348 29.9808 28.3333 29.2559 28.3333 28.5C28.3333 27.7441 28.0348 27.0192 27.5035 26.4847C26.9721 25.9503 26.2514 25.65 25.5 25.65Z" fill="black"/>
</svg>
