<svg width="47" height="48" viewBox="0 0 47 48" fill="none" xmlns="http://www.w3.org/2000/svg">
<path d="M23.036 35.4701L8.6097 21.1154L12.6287 16.9322L20.1303 24.3966L20.072 0.940119L25.8282 0.9258L25.8865 24.3823L33.351 16.8806L37.3907 21.0438L23.036 35.4701ZM5.79604 47.0255C4.21308 47.0294 2.85706 46.4696 1.72796 45.3461C0.598864 44.2227 0.0313853 42.8685 0.0255241 41.2836L0.004046 32.6493L5.76024 32.635L5.78172 41.2693L40.3189 41.1834L40.2974 32.5491L46.0536 32.5348L46.0751 41.1691C46.079 42.752 45.5193 44.109 44.3958 45.24C43.2723 46.371 41.9181 46.9375 40.3332 46.9396L5.79604 47.0255Z" fill="black"/>
</svg>
