<svg width="51" height="51" viewBox="0 0 51 51" fill="none" xmlns="http://www.w3.org/2000/svg">
<path d="M47.33 3.61821C45.528 1.81625 43.3598 0.916504 40.8228 0.916504H10.1255C7.58854 0.916504 5.42029 1.81625 3.61833 3.61821C1.81638 5.42017 0.916626 7.58842 0.916626 10.1254V40.8226C0.916626 43.3596 1.81638 45.5279 3.61833 47.3298C5.42029 49.1318 7.58854 50.0315 10.1255 50.0315H17.2891C17.7562 50.0315 18.1078 50.0143 18.3438 49.9824C18.6183 49.9273 18.8662 49.7809 19.0468 49.5669C19.2804 49.3211 19.3984 48.9646 19.3984 48.4975L19.3812 46.3219C19.3713 44.9354 19.3664 43.839 19.3664 43.0278L18.6289 43.1556C18.1618 43.2416 17.5718 43.2785 16.8565 43.2687C16.1108 43.2549 15.3676 43.1801 14.6341 43.045C13.8534 42.9008 13.1184 42.5721 12.4905 42.0862C11.8328 41.5887 11.3424 40.9027 11.0843 40.1195L10.7647 39.382C10.4953 38.8003 10.1569 38.2531 9.75679 37.7522C9.29954 37.1548 8.83492 36.7516 8.36538 36.5378L8.14413 36.378C7.98985 36.2675 7.84952 36.1387 7.72621 35.9945C7.60844 35.8606 7.51148 35.7098 7.43859 35.547C7.37467 35.3971 7.42875 35.2742 7.59838 35.1783C7.77046 35.08 8.07775 35.0333 8.52763 35.0333L9.16679 35.1316C9.59208 35.2152 10.1206 35.4708 10.7475 35.8961C11.3819 36.3286 11.9118 36.8972 12.2987 37.5604C12.7904 38.4331 13.3804 39.0993 14.0736 39.559C14.7669 40.0163 15.465 40.2474 16.1681 40.2474C16.8712 40.2474 17.4784 40.1933 17.9922 40.0876C18.4891 39.9849 18.9719 39.8231 19.4303 39.6058C19.6221 38.1799 20.1433 37.0786 20.9963 36.3116C19.891 36.2032 18.7955 36.0109 17.7193 35.7363C16.6691 35.4478 15.6591 35.0291 14.7128 34.49C13.7227 33.9509 12.8482 33.2226 12.1389 32.3463C11.458 31.4933 10.8975 30.3747 10.4599 28.9907C10.0248 27.6042 9.80596 26.0038 9.80596 24.192C9.80596 21.6132 10.6467 19.4179 12.3307 17.6037C11.544 15.6665 11.6178 13.4909 12.5544 11.0842C13.1739 10.89 14.0908 11.035 15.3053 11.5144C16.5197 11.9938 17.4096 12.4043 17.975 12.7435C18.5404 13.0877 18.9928 13.3753 19.3345 13.6089C21.333 13.0527 23.3984 12.7731 25.4729 12.778C27.5846 12.778 29.63 13.0558 31.6138 13.6089L32.8283 12.8419C33.7624 12.281 34.7477 11.8102 35.7709 11.4357C36.9017 11.008 37.7621 10.8924 38.362 11.0842C39.3207 13.4933 39.4043 15.6665 38.6152 17.6061C40.2991 19.4179 41.1423 21.6132 41.1423 24.1945C41.1423 26.0063 40.9235 27.6115 40.486 29.0054C40.0508 30.4018 39.4854 31.5203 38.7922 32.3635C38.0704 33.2285 37.1923 33.9499 36.2035 34.49C35.171 35.0652 34.168 35.4807 33.197 35.7363C32.1209 36.0118 31.0254 36.2049 29.92 36.314C31.0263 37.2728 31.5819 38.7847 31.5819 40.8521V48.4975C31.5819 48.8589 31.6335 49.1515 31.7417 49.3752C31.7914 49.483 31.8623 49.5796 31.9501 49.6594C32.038 49.7393 32.141 49.8006 32.253 49.8398C32.489 49.9234 32.6955 49.9775 32.8774 49.9971C33.0593 50.0217 33.3199 50.0291 33.6592 50.0291H40.8228C43.3598 50.0291 45.528 49.1293 47.33 47.3274C49.1295 45.5279 50.0317 43.3572 50.0317 40.8202V10.1254C50.0317 7.58842 49.1319 5.42017 47.33 3.61821Z" fill="black"/>
</svg>
