<svg width="46" height="46" viewBox="0 0 46 46" fill="none" xmlns="http://www.w3.org/2000/svg">
<g clip-path="url(#clip0_465_82)">
<path d="M13.4628 4.42711C14.9021 4.91469 16.2714 5.5887 17.5357 6.43194C19.3212 5.9756 21.1572 5.74635 23.0001 5.74961C24.9034 5.74961 26.7395 5.98728 28.4607 6.43003C29.7245 5.58761 31.0931 4.91425 32.5317 4.42711C33.8676 3.97286 35.7709 3.23686 36.9017 4.48844C37.6684 5.33944 37.86 6.76544 37.9961 7.85411C38.1494 9.06928 38.1859 10.6524 37.7834 12.2241C39.3224 14.2117 40.2501 16.5826 40.2501 19.1663C40.2501 23.0801 38.1303 26.4784 34.9927 28.832C33.4827 29.9505 31.808 30.8273 30.0285 31.431C30.4387 32.3702 30.6668 33.409 30.6668 34.4996V40.2496C30.6668 40.7579 30.4648 41.2455 30.1054 41.6049C29.746 41.9643 29.2584 42.1663 28.7501 42.1663H17.2501C16.7418 42.1663 16.2543 41.9643 15.8948 41.6049C15.5354 41.2455 15.3334 40.7579 15.3334 40.2496V38.3502C13.503 38.5744 11.9678 38.3751 10.6625 37.8212C9.29786 37.2424 8.3472 36.3454 7.63228 35.4867C6.95378 34.674 6.21395 32.8417 5.14445 32.4852C4.90558 32.4057 4.68473 32.2799 4.49448 32.115C4.30424 31.9501 4.14834 31.7493 4.03567 31.5242C3.80815 31.0695 3.77056 30.543 3.9312 30.0606C4.09183 29.5782 4.43752 29.1794 4.89222 28.9518C5.34691 28.7243 5.87337 28.6867 6.35578 28.8474C7.63228 29.2729 8.46411 30.1929 9.03336 30.9327C9.95336 32.121 10.7009 33.6735 12.1575 34.2926C12.7574 34.5475 13.6372 34.7143 15.0134 34.5264L15.3334 34.4613C15.3371 33.4182 15.5543 32.3869 15.9717 31.431C14.1922 30.8273 12.5175 29.9505 11.0075 28.832C7.86995 26.4784 5.75011 23.082 5.75011 19.1663C5.75011 16.5864 6.67586 14.2174 8.21111 12.2318C7.80861 10.6601 7.84311 9.07311 7.99645 7.85603L8.00603 7.78319C8.14595 6.66769 8.30886 5.35478 9.09086 4.48844C10.2217 3.23686 12.1269 3.97478 13.4609 4.42903L13.4628 4.42711Z" fill="black"/>
</g>
</svg>
