<svg width="50" height="45" viewBox="0 0 50 45" fill="none" xmlns="http://www.w3.org/2000/svg">
<path d="M0 22.3389C0 23.366 0.812785 23.9868 1.81918 23.9868C2.44018 23.9868 2.93242 23.6873 3.36073 23.2591L24.2511 4.23624C24.4858 4.00069 24.7434 3.91487 25.021 3.91487C25.2785 3.91487 25.5142 4.00069 25.7699 4.23624L46.6393 23.2591C47.0886 23.6873 47.5808 23.9868 48.1808 23.9868C49.1863 23.9868 50 23.366 50 22.3389C50 21.697 49.7644 21.2908 49.358 20.9265L41.9516 14.1868V1.5402C41.9516 0.598917 41.3525 0 40.411 0H37.6073C36.6868 0 36.0447 0.598917 36.0447 1.5402V8.81576L27.568 1.0691C26.8192 0.363367 25.8986 0.0219117 25 0.0219117C24.1005 0.0219117 23.2018 0.36428 22.431 1.07002L0.642009 20.9265C0.256621 21.2908 0 21.697 0 22.3389ZM6.12146 40.2917C6.12146 43.2662 7.91963 45 10.937 45H19.6064V29.7851C19.6064 28.8009 20.2694 28.16 21.2539 28.16H28.81C29.7945 28.16 30.4365 28.8009 30.4365 29.7851V45H39.084C42.1014 45 43.8785 43.2662 43.8785 40.2917V24.6286L25.7059 8.25884C25.4703 8.0452 25.2137 7.93838 24.9571 7.93838C24.7215 7.93838 24.4858 8.0452 24.2292 8.28075L6.12146 24.7354V40.2917Z" fill="black"/>
</svg>
