<svg width="20" height="20" viewBox="0 0 20 20" fill="none" xmlns="http://www.w3.org/2000/svg">
<path d="M9.99999 0.399994C4.69799 0.399994 0.399994 4.69799 0.399994 9.99999C0.399994 15.302 4.69799 19.6 9.99999 19.6C15.302 19.6 19.6 15.302 19.6 9.99999C19.6 4.69799 15.302 0.399994 9.99999 0.399994ZM7.64999 13.979H5.70599V7.72299H7.64999V13.979ZM6.66599 6.95499C6.05199 6.95499 5.65499 6.51999 5.65499 5.98199C5.65499 5.43299 6.06399 5.01099 6.69099 5.01099C7.31799 5.01099 7.70199 5.43299 7.71399 5.98199C7.71399 6.51999 7.31799 6.95499 6.66599 6.95499ZM14.75 13.979H12.806V10.512C12.806 9.70499 12.524 9.15699 11.821 9.15699C11.284 9.15699 10.965 9.52799 10.824 9.88499C10.772 10.012 10.759 10.192 10.759 10.371V13.978H8.81399V9.71799C8.81399 8.93699 8.78899 8.28399 8.76299 7.72199H10.452L10.541 8.59099H10.58C10.836 8.18299 11.463 7.58099 12.512 7.58099C13.791 7.58099 14.75 8.43799 14.75 10.28V13.979Z" fill="black"/>
</svg>
