<svg width="52" height="50" viewBox="0 0 52 50" fill="none" xmlns="http://www.w3.org/2000/svg">
<g clip-path="url(#clip0_253_115)">
<path d="M25.9999 0.203125C22.6127 0.203125 19.2586 0.860284 16.1291 2.13708C12.9997 3.41388 10.1562 5.2853 7.76108 7.64452C2.92384 12.4092 0.206299 18.8714 0.206299 25.6096C0.206299 36.8393 7.60907 46.3667 17.8492 49.7458C19.1388 49.9491 19.5515 49.1614 19.5515 48.4755V44.1818C12.4067 45.7062 10.8849 40.7773 10.8849 40.7773C9.69836 37.8301 8.02177 37.0425 8.02177 37.0425C5.67455 35.4673 8.20233 35.5182 8.20233 35.5182C10.7817 35.696 12.1488 38.135 12.1488 38.135C14.3928 41.9968 18.1845 40.8535 19.6547 40.2438C19.8868 38.5923 20.5575 37.4745 21.2797 36.8393C15.5535 36.2041 9.5436 34.0192 9.5436 24.3393C9.5436 21.5192 10.5238 19.258 12.2003 17.4541C11.9424 16.819 11.0396 14.1767 12.4583 10.7468C12.4583 10.7468 14.6249 10.0608 19.5515 13.3383C21.5892 12.7793 23.8075 12.4999 25.9999 12.4999C28.1924 12.4999 30.4107 12.7793 32.4484 13.3383C37.3749 10.0608 39.5416 10.7468 39.5416 10.7468C40.9603 14.1767 40.0575 16.819 39.7995 17.4541C41.4761 19.258 42.4563 21.5192 42.4563 24.3393C42.4563 34.0446 36.4206 36.1787 30.6686 36.8139C31.5972 37.6015 32.4484 39.1513 32.4484 41.5141V48.4755C32.4484 49.1614 32.861 49.9745 34.1765 49.7458C44.4166 46.3413 51.7936 36.8393 51.7936 25.6096C51.7936 22.2732 51.1264 18.9694 49.8302 15.887C48.5339 12.8045 46.634 10.0037 44.2388 7.64452C41.8436 5.2853 39.0002 3.41388 35.8707 2.13708C32.7413 0.860284 29.3872 0.203125 25.9999 0.203125Z" fill="url(#paint0_linear_253_115)"/>
</g>
<defs>
<linearGradient id="paint0_linear_253_115" x1="51.7936" y1="12.7954" x2="1.05788" y2="13.5153" gradientUnits="userSpaceOnUse">
<stop stop-color="#29C782"/>
<stop offset="1" stop-color="#775CD5"/>
</linearGradient>
<clipPath id="clip0_253_115">
<rect width="52" height="50" fill="white"/>
</clipPath>
</defs>
</svg>
