<svg width="32" height="31" viewBox="0 0 32 31" fill="none" xmlns="http://www.w3.org/2000/svg">
<path d="M31.1994 18.0407C30.9738 17.8151 30.6909 17.655 30.3811 17.5777C30.0713 17.5004 29.7463 17.5088 29.4409 17.6019C27.3074 18.2448 25.0392 18.298 22.8779 17.7559C20.7165 17.2137 18.743 16.0966 17.1674 14.5234C15.5919 12.9502 14.4734 10.9799 13.9311 8.82241C13.3888 6.66489 13.4429 4.40094 14.0878 2.27172C14.1819 1.96676 14.1909 1.64197 14.1139 1.33228C14.0369 1.02259 13.8767 0.739717 13.6506 0.514086C13.4246 0.288454 13.1412 0.1286 12.8309 0.0517138C12.5207 -0.0251721 12.1953 -0.0161804 11.8897 0.0777221C8.68106 1.06209 5.86526 3.03166 3.84317 5.70606C2.07487 8.05202 0.996519 10.8434 0.729121 13.767C0.461723 16.6906 1.01586 19.6308 2.32935 22.2575C3.64283 24.8843 5.6637 27.0938 8.1652 28.638C10.6667 30.1822 13.5498 31.0001 16.4911 30.9999C19.9251 31.01 23.2675 29.8955 26.006 27.8274C28.684 25.8071 30.6552 22.995 31.639 19.7915C31.7314 19.4873 31.7394 19.1638 31.6619 18.8554C31.5845 18.547 31.4246 18.2655 31.1994 18.0407ZM23.8899 25.0235C21.5196 26.8045 18.5846 27.6712 15.625 27.4639C12.6654 27.2566 9.88042 25.9894 7.78253 23.8954C5.68463 21.8015 4.41503 19.0216 4.20737 16.0676C3.99971 13.1135 4.86797 10.184 6.65236 7.81815C7.59129 6.57849 8.75493 5.52568 10.0829 4.71437C10.0565 5.08881 10.0433 5.46472 10.0433 5.84209C10.048 10.0302 11.7169 14.0455 14.6839 17.007C17.6509 19.9684 21.6737 21.6342 25.8697 21.6389C26.2478 21.6389 26.6244 21.6257 26.9995 21.5994C26.1871 22.9251 25.1323 24.0867 23.8899 25.0235Z" fill="black"/>
</svg>
