<svg width="24" height="19" viewBox="0 0 24 19" fill="none" xmlns="http://www.w3.org/2000/svg">
<path d="M2.15333 18.6667C1.54 18.6667 1.028 18.4613 0.617333 18.0507C0.205778 17.6391 0 17.1267 0 16.5133V2.15333C0 1.54 0.205778 1.028 0.617333 0.617333C1.028 0.205778 1.54 0 2.15333 0H8.79467L11.4613 2.66667H21.8467C22.46 2.66667 22.972 2.87244 23.3827 3.284C23.7942 3.69467 24 4.20667 24 4.82V16.5133C24 17.1267 23.7947 17.6387 23.384 18.0493C22.9724 18.4609 22.46 18.6667 21.8467 18.6667H2.15333ZM2.15333 17.3333H21.8467C22.0858 17.3333 22.2822 17.2564 22.436 17.1027C22.5898 16.9489 22.6667 16.7524 22.6667 16.5133V4.82C22.6667 4.58089 22.5898 4.38445 22.436 4.23067C22.2822 4.07689 22.0858 4 21.8467 4H10.9267L8.26 1.33333H2.15333C1.91422 1.33333 1.71778 1.41022 1.564 1.564C1.41022 1.71778 1.33333 1.91422 1.33333 2.15333V16.5133C1.33333 16.7524 1.41022 16.9489 1.564 17.1027C1.71778 17.2564 1.91422 17.3333 2.15333 17.3333Z" fill="black"/>
<path d="M8.97203 9.02516L6.986 10.6667L8.97203 12.3083C9.03789 12.3619 9.09242 12.4278 9.13247 12.5024C9.17251 12.5769 9.19728 12.6586 9.20535 12.7427C9.21342 12.8268 9.20462 12.9116 9.17947 12.9923C9.15432 13.073 9.11331 13.148 9.0588 13.2129C9.0043 13.2778 8.93738 13.3314 8.86191 13.3705C8.78644 13.4096 8.7039 13.4336 8.61906 13.4409C8.53423 13.4482 8.44877 13.4388 8.36761 13.4132C8.28646 13.3876 8.21121 13.3464 8.14622 13.2918L5.56556 11.1585C5.49288 11.0984 5.4344 11.0232 5.39427 10.9382C5.35414 10.8533 5.33333 10.7606 5.33333 10.6667C5.33333 10.5729 5.35414 10.4802 5.39427 10.3952C5.4344 10.3103 5.49288 10.2351 5.56556 10.175L8.14622 8.0417C8.27787 7.93468 8.44683 7.8836 8.61628 7.89959C8.78573 7.91559 8.94194 7.99736 9.05088 8.1271C9.15982 8.25684 9.21266 8.42402 9.19789 8.59224C9.18312 8.76045 9.10194 8.91606 8.97203 9.02516ZM18.4344 10.175L15.8538 8.0417C15.7888 7.98712 15.7135 7.94584 15.6324 7.92025C15.5512 7.89465 15.4658 7.88525 15.3809 7.89258C15.2961 7.89991 15.2136 7.92383 15.1381 7.96295C15.0626 8.00208 14.9957 8.05564 14.9412 8.12055C14.8867 8.18546 14.8457 8.26043 14.8205 8.34113C14.7954 8.42184 14.7866 8.50669 14.7947 8.59078C14.8027 8.67488 14.8275 8.75656 14.8675 8.83111C14.9076 8.90566 14.9621 8.97161 15.028 9.02516L17.014 10.6667L15.028 12.3083C14.9621 12.3619 14.9076 12.4278 14.8675 12.5024C14.8275 12.5769 14.8027 12.6586 14.7947 12.7427C14.7866 12.8268 14.7954 12.9116 14.8205 12.9923C14.8457 13.073 14.8867 13.148 14.9412 13.2129C14.9957 13.2778 15.0626 13.3314 15.1381 13.3705C15.2136 13.4096 15.2961 13.4336 15.3809 13.4409C15.4658 13.4482 15.5512 13.4388 15.6324 13.4132C15.7135 13.3876 15.7888 13.3464 15.8538 13.2918L18.4344 11.1585C18.5071 11.0984 18.5656 11.0232 18.6057 10.9382C18.6459 10.8533 18.6667 10.7606 18.6667 10.6667C18.6667 10.5729 18.6459 10.4802 18.6057 10.3952C18.5656 10.3103 18.5071 10.2351 18.4344 10.175ZM13.9409 5.37187C13.8612 5.34314 13.7767 5.33026 13.692 5.33395C13.6073 5.33765 13.5242 5.35786 13.4475 5.39342C13.3707 5.42898 13.3017 5.47919 13.2445 5.5412C13.1873 5.60321 13.1429 5.67579 13.114 5.7548L9.67311 15.1413C9.61478 15.3008 9.62268 15.4768 9.69507 15.6305C9.76745 15.7842 9.8984 15.9031 10.0591 15.9611C10.1297 15.9869 10.2043 16.0001 10.2796 16C10.412 16 10.5413 15.9596 10.6498 15.8842C10.7583 15.8088 10.8408 15.7022 10.886 15.5787L14.3269 6.19213C14.3559 6.11313 14.3688 6.02924 14.3651 5.94526C14.3614 5.86128 14.341 5.77885 14.3052 5.70267C14.2693 5.6265 14.2187 5.55808 14.1562 5.50132C14.0937 5.44456 14.0205 5.40058 13.9409 5.37187Z" fill="black"/>
</svg>
