<svg width="35" height="35" viewBox="0 0 35 35" fill="none" xmlns="http://www.w3.org/2000/svg">
<path d="M8.625 0V7.1875C8.625 8.33125 9.07935 9.42815 9.8881 10.2369C10.6969 11.0456 11.7938 11.5 12.9375 11.5H18.6875C19.8312 11.5 20.9281 11.0456 21.7369 10.2369C22.5456 9.42815 23 8.33125 23 7.1875V0H24.0896C25.6145 0.000325665 27.0768 0.606341 28.1549 1.68475L32.8152 6.34512C33.8937 7.42321 34.4997 8.8855 34.5 10.4104V28.75C34.5 30.275 33.8942 31.7375 32.8159 32.8159C31.7375 33.8942 30.275 34.5 28.75 34.5V21.5625C28.75 20.4188 28.2956 19.3219 27.4869 18.5131C26.6781 17.7044 25.5812 17.25 24.4375 17.25H10.0625C7.68487 17.25 5.75 19.1734 5.75 21.5568V34.5C4.22501 34.5 2.76247 33.8942 1.68414 32.8159C0.605802 31.7375 0 30.275 0 28.75V5.75C0 4.22501 0.605802 2.76247 1.68414 1.68414C2.76247 0.605802 4.22501 0 5.75 0H8.625ZM11.5 0V7.1875C11.5 7.56875 11.6515 7.93438 11.921 8.20397C12.1906 8.47355 12.5563 8.625 12.9375 8.625H18.6875C19.0687 8.625 19.4344 8.47355 19.704 8.20397C19.9736 7.93438 20.125 7.56875 20.125 7.1875V0H11.5ZM8.625 34.5H25.875V21.5625C25.875 21.1813 25.7236 20.8156 25.454 20.546C25.1844 20.2764 24.8187 20.125 24.4375 20.125H10.0625C9.26612 20.125 8.625 20.7661 8.625 21.5568V34.5Z" fill="black"/>
</svg>
