<svg width="92" height="92" viewBox="0 0 92 92" fill="none" xmlns="http://www.w3.org/2000/svg">
<path d="M75.0183 65.32L67.3631 60.2753L60.9806 70.9397L53.5555 68.7662L47.0158 78.7482L47.3493 81.8915L82.8996 75.3365L80.8373 53.1262L75.0183 65.32ZM41.8638 55.7443L47.5678 54.9623C48.4916 55.3763 49.1356 55.5373 50.2396 55.8172C51.9646 56.2657 53.958 56.6988 56.9135 55.2038C57.6035 54.8665 59.0333 53.5555 59.6121 52.808L82.9801 48.5683L85.3645 77.4218L45.3291 84.6362L41.8638 55.7443ZM85.2763 45.3483L82.9686 45.7892L78.5373 0L3.02448 8.75917L12.328 84.249L21.1676 82.9687C20.4623 81.9605 19.3621 80.7415 17.4876 79.1775C14.881 77.0155 15.801 73.3432 17.3381 71.024C19.3698 67.1063 29.8348 62.123 29.2445 55.8593C29.0298 53.5823 28.6695 50.6153 26.5535 48.5837C26.4768 49.427 26.6186 50.2397 26.6186 50.2397C26.6186 50.2397 25.7485 49.1318 25.3153 47.6215C24.886 47.0465 24.5486 46.8587 24.0925 46.0882C23.7666 46.9813 23.8126 48.0163 23.8126 48.0163C23.8126 48.0163 23.0996 46.3412 22.9846 44.9228C22.563 45.5592 22.4595 46.7628 22.4595 46.7628C22.4595 46.7628 21.5356 44.1178 21.7465 42.6918C21.3248 41.4537 20.0751 38.9927 20.4316 33.3998C22.7316 35.0137 27.807 34.6303 29.785 31.717C30.4405 30.7548 30.889 28.1175 29.4553 22.9272C28.5353 19.5998 26.2545 14.6472 25.369 12.765L25.2616 12.8417C25.7293 14.3558 26.6953 17.5298 27.0633 19.0708C28.1865 23.7398 28.4893 25.3652 27.9603 27.5195C27.5156 29.3902 26.4385 30.6168 23.7168 31.9853C20.9951 33.3577 17.3803 30.015 17.1503 29.831C14.5053 27.7227 12.4583 24.2842 12.2283 22.6128C11.9906 20.7843 13.2825 19.688 13.9341 18.193C13.0026 18.4613 11.9638 18.929 11.9638 18.929C11.9638 18.929 13.202 17.6487 14.7315 16.537C15.364 16.1192 15.7358 15.8547 16.4028 15.2988C15.8201 15.2891 15.2373 15.2929 14.6548 15.3103C14.6548 15.3103 16.2648 14.4402 17.9323 13.8077C16.7133 13.754 15.5441 13.7962 15.5441 13.7962C15.5441 13.7962 19.136 12.19 21.9765 11.0093C23.9276 10.212 25.8328 10.4458 26.9061 11.9945C28.313 14.0262 29.7888 15.1263 32.9206 15.8125C34.8411 14.9577 35.4238 14.5207 37.8426 13.8613C39.9663 11.523 41.6376 11.224 41.6376 11.224C41.6376 11.224 40.8096 11.983 40.5873 13.179C41.791 12.2245 43.1173 11.4348 43.1173 11.4348C43.1173 11.4348 42.6036 12.0635 42.1245 13.0678L42.2395 13.2327C43.6425 12.3893 45.2946 11.7223 45.2946 11.7223C45.2946 11.7223 44.8231 12.3203 44.2673 13.0947C45.3291 13.087 47.4796 13.1407 48.3153 13.2365C53.2411 13.3438 54.2646 7.9695 56.1545 7.29483C58.5235 6.4515 59.5815 5.94167 63.618 9.9015C67.0795 13.3055 69.7858 19.3967 68.4441 20.7613C67.3171 21.8922 65.0938 20.3205 62.6328 17.25C61.2298 15.5161 60.286 13.457 59.8881 11.2623C59.6287 9.99628 58.959 8.85107 57.983 8.004C57.983 8.004 58.8646 9.959 58.8646 11.684C58.8646 12.627 58.9796 16.1498 60.49 18.124C60.3405 18.4153 60.2715 19.5577 60.1066 19.7723C58.351 17.6487 54.5751 16.1307 53.958 15.6822C56.0433 17.388 60.8311 21.3095 62.6711 25.07C64.4076 28.6235 63.3841 31.8818 64.2658 32.7252C64.515 32.9667 68.0071 37.3137 68.6741 39.4987C69.8471 43.309 68.747 47.311 67.2136 49.7912L62.9318 50.4582C62.307 50.2857 61.8853 50.1975 61.3218 49.8717C61.6285 49.3235 62.2456 47.955 62.2533 47.679L62.0118 47.2535C60.6778 49.1395 58.4468 50.9718 56.5915 52.026C54.165 53.4022 51.3666 53.1913 49.5458 52.624C44.3785 51.0332 39.491 47.5372 38.3141 46.621C38.3141 46.621 38.2758 47.3532 38.4981 47.518C39.8015 48.9862 42.7876 51.6465 45.6741 53.498L39.5216 54.1765L42.4311 76.8238C41.1393 77.0078 40.9361 77.096 39.5293 77.2992C38.2835 72.9023 35.903 70.035 33.304 68.3598C31.0078 66.8878 27.8453 66.5582 24.817 67.1562L24.6253 67.3823C27.1308 67.1092 29.6538 67.7105 31.7668 69.0843C34.2738 70.6675 36.294 74.7615 37.0376 77.2263C37.9883 80.3773 38.6476 83.743 36.087 87.3157C34.2623 89.8533 28.9416 91.2563 24.6406 88.2242C25.7906 90.068 27.3431 91.5822 29.4323 91.8658C32.5335 92.2875 35.4775 91.7508 37.5053 89.6655C39.238 87.8868 40.1503 84.1685 39.9126 80.2508L42.6496 79.8522L43.6386 86.8825L88.9755 81.4238L85.2763 45.3483ZM57.6916 26.2507C57.5613 26.5382 57.3658 26.7298 57.6648 27.669L57.6801 27.7227L57.73 27.8453L57.8526 28.1252C58.3893 29.2253 58.9835 30.2642 59.9686 30.7932C60.2255 30.751 60.49 30.7203 60.7621 30.705C61.6898 30.6667 62.2763 30.8123 62.6481 31.0117C62.6826 30.8277 62.6865 30.5555 62.6673 30.1607C62.5983 28.7653 62.9433 26.3963 60.2676 25.1467C59.2556 24.679 57.8373 24.8247 57.3658 25.4073C57.4414 25.4166 57.5158 25.4333 57.5881 25.4572C58.3011 25.7102 57.8181 25.9555 57.6916 26.2507ZM65.1973 39.2533C64.8446 39.0617 63.204 39.1383 62.0501 39.2725C59.8498 39.5332 57.477 40.296 56.9595 40.6985C56.0126 41.4307 56.442 42.7033 57.1396 43.2285C59.0985 44.6928 60.8196 45.6742 62.629 45.4327C63.7406 45.287 64.722 43.5275 65.4196 41.929C65.895 40.825 65.895 39.6367 65.1973 39.2533ZM45.7355 27.9757C46.3565 27.3853 42.6496 26.6148 39.7708 28.5737C37.6471 30.0227 37.582 33.1238 39.6136 34.8833C39.8168 35.0597 39.9816 35.1823 40.1388 35.282C41.8313 34.4849 43.6361 33.9523 45.4901 33.7027C45.9233 33.2235 46.4216 32.3802 46.2951 30.8468C46.1265 28.7692 44.551 29.0988 45.7355 27.9757Z" fill="white"/>
</svg>
