<svg width="3988" height="3615" viewBox="0 0 3988 3615" fill="none" xmlns="http://www.w3.org/2000/svg">
<path fill-rule="evenodd" clip-rule="evenodd" d="M1368.63 53.261L951.308 361.811L1464.37 1055.74L1881.69 747.19L1368.63 53.261ZM898.162 353.847L1456.41 1108.89L1934.84 755.154L1376.59 0.114258L898.162 353.847Z" fill="black"/>
<path fill-rule="evenodd" clip-rule="evenodd" d="M2352.47 448.147L1935.15 756.697L2448.21 1450.63L2865.53 1142.08L2352.47 448.147ZM1882 748.733L2440.24 1503.77L2918.68 1150.04L2360.43 395L1882 748.733Z" fill="black"/>
<path fill-rule="evenodd" clip-rule="evenodd" d="M2437.47 1503.15L2020.15 1811.7L2533.21 2505.63L2950.53 2197.08L2437.47 1503.15ZM1967 1803.73L2525.24 2558.77L3003.68 2205.04L2445.43 1450L1967 1803.73Z" fill="black"/>
<path fill-rule="evenodd" clip-rule="evenodd" d="M3421.31 1898.03L3003.99 2206.58L3517.05 2900.51L3934.37 2591.96L3421.31 1898.03ZM2950.84 2198.62L3509.08 2953.66L3987.52 2599.93L3429.27 1844.89L2950.84 2198.62Z" fill="black"/>
<path fill-rule="evenodd" clip-rule="evenodd" d="M470.469 714.147L53.1467 1022.7L566.208 1716.63L983.53 1408.08L470.469 714.147ZM0 1014.73L558.244 1769.77L1036.68 1416.04L478.433 661L0 1014.73Z" fill="black"/>
<path fill-rule="evenodd" clip-rule="evenodd" d="M1454.31 1109.03L1036.99 1417.58L1550.05 2111.51L1967.37 1802.96L1454.31 1109.03ZM983.838 1409.62L1542.08 2164.66L2020.52 1810.93L1462.27 1055.89L983.838 1409.62Z" fill="black"/>
<path fill-rule="evenodd" clip-rule="evenodd" d="M1539.31 2164.03L1121.99 2472.58L1635.05 3166.51L2052.37 2857.96L1539.31 2164.03ZM1068.84 2464.62L1627.08 3219.66L2105.52 2865.93L1547.27 2110.89L1068.84 2464.62Z" fill="black"/>
<path fill-rule="evenodd" clip-rule="evenodd" d="M2523.15 2558.92L2105.82 2867.47L2618.88 3561.4L3036.21 3252.85L2523.15 2558.92ZM2052.68 2859.5L2610.92 3614.54L3089.35 3260.81L2531.11 2505.77L2052.68 2859.5Z" fill="black"/>
</svg>
