<svg width="46" height="45" viewBox="0 0 46 45" fill="none" xmlns="http://www.w3.org/2000/svg">
<path d="M9.59071 5.29568C9.59009 6.62169 9.092 7.89312 8.20602 8.83029C7.32005 9.76745 6.11876 10.2936 4.86642 10.2929C3.61409 10.2922 2.41329 9.76485 1.5282 8.82675C0.643112 7.88865 0.146225 6.61669 0.146851 5.29068C0.147477 3.96467 0.645565 2.69324 1.53154 1.75607C2.41752 0.818913 3.61881 0.292795 4.87114 0.293458C6.12348 0.294121 7.32427 0.821511 8.20936 1.75961C9.09445 2.69771 9.59134 3.96967 9.59071 5.29568ZM9.73237 13.9952H0.288509V45.2935H9.73237V13.9952ZM24.6537 13.9952H15.257V45.2935H24.5592V28.8694C24.5592 19.7199 35.821 18.8699 35.821 28.8694V45.2935H45.1469V25.4696C45.1469 10.0454 28.4784 10.6204 24.5592 18.195L24.6537 13.9952Z" fill="url(#paint0_linear_253_114)"/>
<defs>
<linearGradient id="paint0_linear_253_114" x1="45.1469" y1="11.722" x2="0.88901" y2="12.3256" gradientUnits="userSpaceOnUse">
<stop stop-color="#29C782"/>
<stop offset="1" stop-color="#775CD5"/>
</linearGradient>
</defs>
</svg>
