<svg width="25" height="24" viewBox="0 0 25 24" fill="none" xmlns="http://www.w3.org/2000/svg">
<path d="M24.2653 13.967C24.0909 13.7923 23.8723 13.6684 23.6328 13.6086C23.3934 13.5487 23.1422 13.5552 22.9061 13.6273C21.2571 14.125 19.504 14.1662 17.8334 13.7465C16.1629 13.3268 14.6375 12.4619 13.4197 11.2439C12.202 10.026 11.3375 8.50059 10.9183 6.83025C10.4991 5.15991 10.541 3.40718 11.0394 1.75875C11.1121 1.52265 11.1191 1.2712 11.0596 1.03144C11 0.791682 10.8762 0.572684 10.7015 0.398002C10.5268 0.223319 10.3078 0.0995611 10.0679 0.0400365C9.82813 -0.0194881 9.57662 -0.0125267 9.34047 0.060172C6.86044 0.822262 4.68406 2.34709 3.12114 4.41759C1.75439 6.23382 0.920913 8.3949 0.714236 10.6583C0.507559 12.9218 0.93586 15.198 1.95108 17.2316C2.9663 19.2653 4.52827 20.9758 6.46172 22.1714C8.39517 23.3669 10.6236 24.0001 12.897 23.9999C15.5511 24.0077 18.1346 23.1449 20.2512 21.5438C22.3211 19.9797 23.8447 17.8026 24.6051 15.3225C24.6765 15.087 24.6826 14.8365 24.6228 14.5977C24.563 14.359 24.4394 14.141 24.2653 13.967ZM18.6157 19.373C16.7836 20.7519 14.5151 21.4228 12.2276 21.2624C9.94004 21.1019 7.78745 20.1208 6.16595 18.4997C4.54445 16.8785 3.56315 14.7264 3.40264 12.4394C3.24214 10.1524 3.91323 7.88439 5.29242 6.05276C6.01814 5.09302 6.91753 4.27794 7.94393 3.64984C7.92354 3.93973 7.91335 4.23075 7.91335 4.52291C7.91694 7.76534 9.20688 10.8739 11.5001 13.1667C13.7934 15.4594 16.9027 16.7491 20.1459 16.7527C20.4381 16.7527 20.7292 16.7425 21.0191 16.7221C20.3912 17.7485 19.5759 18.6477 18.6157 19.373Z" fill="black"/>
</svg>
