<svg width="49" height="39" viewBox="0 0 49 39" fill="none" xmlns="http://www.w3.org/2000/svg">
<path d="M42.0063 22.4603V37.0489C42.0063 37.5757 41.8138 38.0316 41.4288 38.4165C41.0438 38.8015 40.5879 38.994 40.0611 38.994H28.3903V27.3232H20.6097V38.994H8.93887C8.41206 38.994 7.95617 38.8015 7.57119 38.4165C7.18622 38.0316 6.99373 37.5757 6.99373 37.0489V22.4603C6.99373 22.44 6.99879 22.4096 7.00893 22.3691C7.01906 22.3286 7.02412 22.2982 7.02412 22.2779L24.5 7.87174L41.9759 22.2779C41.9961 22.3185 42.0063 22.3793 42.0063 22.4603ZM48.7839 20.3632L46.8995 22.6123C46.7374 22.7946 46.5247 22.9061 46.2613 22.9466H46.1701C45.9067 22.9466 45.6939 22.8757 45.5318 22.7338L24.5 5.19717L3.46816 22.7338C3.22502 22.8959 2.98187 22.9668 2.73873 22.9466C2.47533 22.9061 2.26258 22.7946 2.10048 22.6123L0.216127 20.3632C0.0540317 20.1606 -0.0168849 19.9225 0.00337698 19.649C0.0236389 19.3754 0.135079 19.1576 0.337698 18.9955L22.1901 0.790214C22.8385 0.263405 23.6085 0 24.5 0C25.3915 0 26.1615 0.263405 26.8099 0.790214L34.2257 6.99035V1.06375C34.2257 0.780083 34.3169 0.547071 34.4992 0.364714C34.6816 0.182357 34.9146 0.0911785 35.1983 0.0911785H41.0337C41.3174 0.0911785 41.5504 0.182357 41.7327 0.364714C41.9151 0.547071 42.0063 0.780083 42.0063 1.06375V13.464L48.6623 18.9955C48.8649 19.1576 48.9764 19.3754 48.9966 19.649C49.0169 19.9225 48.946 20.1606 48.7839 20.3632Z" fill="black"/>
</svg>
