<svg width="1008" height="642" viewBox="0 0 1008 642" fill="none" xmlns="http://www.w3.org/2000/svg">
<path d="M828.986 548.676L814.242 641.221L736.809 565.572L828.986 548.676Z" fill="black"/>
<path d="M68 297C68 315.778 52.7777 331 34 331C15.2223 331 0 315.778 0 297C0 278.222 15.2223 263 34 263C52.7777 263 68 278.222 68 297Z" fill="black"/>
<path d="M365 0H448V82H365V0Z" fill="black"/>
<path d="M1008 410.5C1008 429.002 993.002 444 974.5 444C955.998 444 941 429.002 941 410.5C941 391.998 955.998 377 974.5 377C993.002 377 1008 391.998 1008 410.5Z" fill="black"/>
</svg>
